<svg xmlns="http://www.w3.org/2000/svg" xmlns:xlink="http://www.w3.org/1999/xlink" version="1.1" width="50px" height="28px" viewBox="-0.5 -0.5 50 28"><defs/><g><rect x="0" y="1" width="24" height="5" rx="0.75" ry="0.75" fill="#67e8f9" stroke="none" pointer-events="all"/><rect x="3.5" y="9.5" width="17" height="8" rx="1.2" ry="1.2" fill="#377c85" stroke="none" pointer-events="all"/><rect x="0" y="21" width="24" height="5" rx="0.75" ry="0.75" fill="#67e8f9" stroke="none" pointer-events="all"/><rect x="42.5" y="5" width="6" height="5" rx="0.75" ry="0.75" fill="#67e8f9" stroke="none" transform="rotate(90,45.5,7.5)" pointer-events="all"/><rect x="28" y="21" width="20" height="5" rx="0.75" ry="0.75" fill="#67e8f9" stroke="none" pointer-events="all"/><rect x="42.5" y="17" width="6" height="5" rx="0.75" ry="0.75" fill="#67e8f9" stroke="none" transform="rotate(90,45.5,19.5)" pointer-events="all"/><rect x="39.5" y="14" width="8.5" height="5" rx="0.75" ry="0.75" fill="#67e8f9" stroke="none" transform="rotate(-180,43.75,16.5)" pointer-events="all"/><rect x="40.5" y="22" width="9" height="2" rx="0.3" ry="0.3" fill="#000000" stroke="none" transform="rotate(45,45,23)" pointer-events="all"/><rect x="28" y="1" width="20" height="5" rx="0.75" ry="0.75" fill="#67e8f9" stroke="none" pointer-events="all"/><rect x="40" y="3" width="10" height="2" rx="0.3" ry="0.3" fill="#000000" stroke="none" transform="rotate(-45,45,4)" pointer-events="all"/><path d="M 12 11 L 14.5 13.5 L 12 16 L 9.5 13.5 Z" fill="#000000" stroke="none" pointer-events="all"/><rect x="18" y="11" width="25" height="5" fill="#377c84" stroke="none" transform="rotate(90,30.5,13.5)" pointer-events="all"/><rect x="29" y="1" width="10" height="2" fill="#67e8f9" stroke="none" pointer-events="all"/><rect x="31" y="2" width="8" height="3" fill="#67e8f9" stroke="none" pointer-events="all"/><rect x="26" y="3" width="10" height="2" rx="0.3" ry="0.3" fill="#000000" stroke="none" transform="rotate(45,31,4)" pointer-events="all"/><rect x="31" y="21.7" width="10" height="3" fill="#67e8f9" stroke="none" transform="rotate(-180,36,23.2)" pointer-events="all"/><rect x="29.3" y="23.5" width="8" height="2.5" fill="#67e8f9" stroke="none" transform="rotate(-180,33.3,24.75)" pointer-events="all"/><rect x="26" y="22" width="10" height="2" rx="0.3" ry="0.3" fill="#000000" stroke="none" transform="rotate(-45,31,23)" pointer-events="all"/><path d="M 11 12.17 L 13 13.5 L 11 14.84 Z" fill="#dae8fc" stroke="none" pointer-events="all"/><path d="M 11 12.17 L 13 13.5 L 11 14.84 Z" fill="#dae8fc" stroke="none" transform="rotate(-180,12,13.5)" pointer-events="all"/><path d="M 10 13.5 L 14 13.5" fill="none" stroke="rgb(0, 0, 0)" stroke-width="0.3" stroke-miterlimit="10" pointer-events="stroke"/><path d="M 10.5 14 L 13.5 14" fill="none" stroke="rgb(0, 0, 0)" stroke-width="0.3" stroke-miterlimit="10" pointer-events="stroke"/><path d="M 10.5 13 L 13.5 13" fill="none" stroke="rgb(0, 0, 0)" stroke-width="0.3" stroke-miterlimit="10" pointer-events="stroke"/></g></svg>